<svg id="logo_-_blue_star" data-name="logo - blue star" xmlns="http://www.w3.org/2000/svg" viewBox="0 0 244.3 305.99"><defs><style>.cls-1{fill:#fff;fill-rule:evenodd;}</style></defs><g id="star"><path class="cls-1" d="M439.49,18.79A122.15,122.15,0,1,0,561.64,140.94,122.15,122.15,0,0,0,439.49,18.79Zm51.8,195.1-51.18-37.38-51.63,37.33,19.62-59.73-51.32-38,63.31.14,19.78-58.41,19.54,58.63h63.14l-51.11,37.58Z" transform="translate(-317.34 -18.79)"/></g><g id="taggstar"><path class="cls-1" d="M540.28,283.58a18.58,18.58,0,0,0-5,.52,8,8,0,0,0-3.45,2.11,11,11,0,0,0-2.55,4V284h-9.94v4.84H525v18h-5.59v4.84h17.07v-4.84h-6v-6.1q0-5.67,1-7.86a5.55,5.55,0,0,1,3-3,17.28,17.28,0,0,1,6.2-.83h1.09v-5.5ZM376.05,294.06a23.11,23.11,0,0,0-.38-4.93,7.05,7.05,0,0,0-1.51-2.87,7.81,7.81,0,0,0-3.39-2.18,15.63,15.63,0,0,0-5.4-.84q-8.5,0-12,6.47l5.22,1.37a6.28,6.28,0,0,1,5.92-3.26,7.19,7.19,0,0,1,3.85.91,4.19,4.19,0,0,1,1.88,2.07,10.22,10.22,0,0,1,.4,3.26v2.75a13.64,13.64,0,0,0-7.53-2.35A10.56,10.56,0,0,0,356,297a8.45,8.45,0,0,0-.18,12.71,9.63,9.63,0,0,0,6.57,2.46,12.35,12.35,0,0,0,8.82-3.83v3.38h9.51v-4.84h-4.67Zm-5.38,10.59A10.76,10.76,0,0,1,363.2,308a4.93,4.93,0,0,1-3.63-1.31,4.45,4.45,0,0,1-1.33-3.27,4.29,4.29,0,0,1,1.52-3.4,5.55,5.55,0,0,1,3.78-1.32,11.55,11.55,0,0,1,7.13,2.75ZM415.11,284H404.69V288a13.24,13.24,0,0,0-19.37-.33,14.22,14.22,0,0,0-4.14,10.64,14.48,14.48,0,0,0,3.75,10.13,12.53,12.53,0,0,0,9.71,4.13A13.65,13.65,0,0,0,404.69,308v2.52a18.36,18.36,0,0,1-.29,3.91,6.86,6.86,0,0,1-1.27,2.45,7.6,7.6,0,0,1-3,2.19,10.45,10.45,0,0,1-4.35.9,12.5,12.5,0,0,1-7.84-2.8l-3.55,3.95a17.47,17.47,0,0,0,10.93,3.69,18.34,18.34,0,0,0,7.36-1.43,12.25,12.25,0,0,0,4.94-3.54,10.22,10.22,0,0,0,2.08-4.12,33,33,0,0,0,.43-6.2V288.85h5Zm-13,21a8.75,8.75,0,0,1-6.41,2.68,8.14,8.14,0,0,1-6.26-2.66,9.79,9.79,0,0,1-2.45-6.88,9.13,9.13,0,0,1,2.67-6.91,8.81,8.81,0,0,1,12.45,0,9.06,9.06,0,0,1,2.69,6.86A9.26,9.26,0,0,1,402.08,305ZM438.42,288a13.24,13.24,0,0,0-19.37-.33,14.22,14.22,0,0,0-4.14,10.64,14.48,14.48,0,0,0,3.75,10.13,12.53,12.53,0,0,0,9.71,4.13A13.65,13.65,0,0,0,438.42,308v2.52a18.36,18.36,0,0,1-.29,3.91,6.7,6.7,0,0,1-1.27,2.45,7.63,7.63,0,0,1-3,2.19,10.53,10.53,0,0,1-4.36.9,12.5,12.5,0,0,1-7.84-2.8l-3.55,3.95a17.48,17.48,0,0,0,10.94,3.69,18.29,18.29,0,0,0,7.35-1.43,12.25,12.25,0,0,0,4.94-3.54,10.22,10.22,0,0,0,2.08-4.12,33,33,0,0,0,.43-6.2V288.85h5V284H438.42ZM435.81,305a8.75,8.75,0,0,1-6.41,2.68,8.14,8.14,0,0,1-6.26-2.66,9.79,9.79,0,0,1-2.45-6.88,9.13,9.13,0,0,1,2.67-6.91,8.81,8.81,0,0,1,12.45,0,9.06,9.06,0,0,1,2.69,6.86A9.26,9.26,0,0,1,435.81,305Zm31.73-8.62a27.7,27.7,0,0,0-6.1-1.47,25.5,25.5,0,0,1-5.48-1.25,2.17,2.17,0,0,1-1.28-2.16,2.88,2.88,0,0,1,1.39-2.48,6.25,6.25,0,0,1,3.54-.93,7.18,7.18,0,0,1,6.41,3.41v1.69h4.84V284H466v1.19a13.4,13.4,0,0,0-6.76-1.62,10.22,10.22,0,0,0-7,2.34,7.38,7.38,0,0,0-2.66,5.8,7.12,7.12,0,0,0,2.44,5.6c1.64,1.44,4.36,2.48,8.18,3.13a17.64,17.64,0,0,1,5.17,1.37,2.49,2.49,0,0,1,1.3,2.32,2.84,2.84,0,0,1-1.57,2.55,8.37,8.37,0,0,1-4.21.91,7.57,7.57,0,0,1-4.37-1.26,4.52,4.52,0,0,1-2.1-3.2v-.92h-4.87v9.51h4.87v-1.56a12.13,12.13,0,0,0,7.24,2,12.33,12.33,0,0,0,7.69-2.27,7.37,7.37,0,0,0,3-6.15,7.82,7.82,0,0,0-1.36-4.57A7.7,7.7,0,0,0,467.54,296.39Zm14.95-21.63-5.44,5V284h-3.61v4.84h3.61v13.74a27.74,27.74,0,0,0,.4,5.73,4.64,4.64,0,0,0,1.95,2.76,6.74,6.74,0,0,0,4,1.1,12.25,12.25,0,0,0,4.18-.74v-4.95a8.09,8.09,0,0,1-3,.57c-.95,0-1.55-.25-1.78-.76a12.67,12.67,0,0,1-.36-4V288.85h5.12V284h-5.12Zm30.24,19.3a22.32,22.32,0,0,0-.39-4.93,7.15,7.15,0,0,0-1.5-2.87,7.91,7.91,0,0,0-3.4-2.18,15.53,15.53,0,0,0-5.39-.84q-8.51,0-12,6.47l5.21,1.37a6.29,6.29,0,0,1,5.93-3.26,7.24,7.24,0,0,1,3.85.91,4.21,4.21,0,0,1,1.87,2.07,10.22,10.22,0,0,1,.4,3.26v2.75a13.64,13.64,0,0,0-7.53-2.35,10.56,10.56,0,0,0-7.14,2.55,8.44,8.44,0,0,0-.17,12.71,9.61,9.61,0,0,0,6.57,2.46,12.38,12.38,0,0,0,8.82-3.83v3.38h9.5v-4.84h-4.66Zm-5.39,10.59a10.76,10.76,0,0,1-7.47,3.32,4.89,4.89,0,0,1-3.62-1.31,4.41,4.41,0,0,1-1.33-3.27,4.28,4.28,0,0,1,1.51-3.4,5.57,5.57,0,0,1,3.78-1.32,11.55,11.55,0,0,1,7.13,2.75ZM346,274.76l-5.44,5V284h-3.6v4.84h3.6v13.74a27.55,27.55,0,0,0,.41,5.73,4.63,4.63,0,0,0,1.94,2.76,6.77,6.77,0,0,0,4,1.1,12.29,12.29,0,0,0,4.18-.74v-4.95a8.13,8.13,0,0,1-3,.57c-.95,0-1.55-.25-1.79-.76a12.67,12.67,0,0,1-.36-4V288.85h5.13V284H346Z" transform="translate(-317.34 -18.79)"/></g></svg>