<svg id="logo_-_blue_star" data-name="logo - blue star" xmlns="http://www.w3.org/2000/svg" viewBox="0 0 244.3 304.8"><defs><style>.cls-1{fill:#0070ff;}.cls-1,.cls-2{fill-rule:evenodd;}.cls-2{fill:#01050b;}</style></defs><g id="star"><path class="cls-1" d="M439.49,18.79A122.15,122.15,0,1,0,561.64,140.94,122.15,122.15,0,0,0,439.49,18.79Zm51.8,195.1-51.18-37.38-51.63,37.33,19.62-59.73-51.32-38,63.31.14,19.78-58.41,19.54,58.63h63.14l-51.11,37.58Z" transform="translate(-317.34 -18.79)"/></g><g id="taggstar"><path class="cls-2" d="M543.15,282.39a19.11,19.11,0,0,0-5,.51,8.13,8.13,0,0,0-3.45,2.12,11,11,0,0,0-2.55,4v-6.24h-9.94v4.84h5.59v18h-5.59v4.84h17.07v-4.84h-6V299.6q0-5.67,1-7.86a5.55,5.55,0,0,1,3-3,17.28,17.28,0,0,1,6.2-.83h1.09v-5.5ZM378.91,292.87a23,23,0,0,0-.38-4.93,7.05,7.05,0,0,0-1.51-2.87,7.81,7.81,0,0,0-3.39-2.18,15.61,15.61,0,0,0-5.4-.85q-8.5,0-12,6.48l5.21,1.37a6.26,6.26,0,0,1,5.92-3.26,7.19,7.19,0,0,1,3.85.91,4.18,4.18,0,0,1,1.88,2.06,10.33,10.33,0,0,1,.4,3.27v2.75a13.64,13.64,0,0,0-7.53-2.35,10.56,10.56,0,0,0-7.14,2.55,8.45,8.45,0,0,0-.18,12.71,9.66,9.66,0,0,0,6.58,2.46,12.36,12.36,0,0,0,8.81-3.84v3.38h9.51v-4.84h-4.67Zm-5.38,10.59a10.76,10.76,0,0,1-7.47,3.32,4.93,4.93,0,0,1-3.62-1.31,4.42,4.42,0,0,1-1.34-3.27,4.32,4.32,0,0,1,1.52-3.41,5.59,5.59,0,0,1,3.78-1.31,11.49,11.49,0,0,1,7.13,2.75ZM418,282.82H407.55v3.95a13.24,13.24,0,0,0-19.37-.33A14.22,14.22,0,0,0,384,297.08a14.51,14.51,0,0,0,3.75,10.13,12.53,12.53,0,0,0,9.71,4.13,13.65,13.65,0,0,0,10.05-4.56v2.52a18.42,18.42,0,0,1-.29,3.91,6.78,6.78,0,0,1-1.27,2.45,7.63,7.63,0,0,1-3,2.19,10.53,10.53,0,0,1-4.36.9,12.5,12.5,0,0,1-7.84-2.8l-3.55,3.95a17.48,17.48,0,0,0,10.94,3.69,18.29,18.29,0,0,0,7.35-1.43,12.35,12.35,0,0,0,4.94-3.54,10.29,10.29,0,0,0,2.08-4.12,33.06,33.06,0,0,0,.43-6.2V287.66h5Zm-13,21a8.79,8.79,0,0,1-6.41,2.68,8.11,8.11,0,0,1-6.26-2.67,9.75,9.75,0,0,1-2.45-6.87,9.13,9.13,0,0,1,2.67-6.91,8.79,8.79,0,0,1,12.45,0,9,9,0,0,1,2.69,6.85A9.28,9.28,0,0,1,404.94,303.82Zm36.34-17.05a13.24,13.24,0,0,0-19.37-.33,14.22,14.22,0,0,0-4.14,10.64,14.51,14.51,0,0,0,3.75,10.13,12.53,12.53,0,0,0,9.71,4.13,13.65,13.65,0,0,0,10-4.56v2.52a18.42,18.42,0,0,1-.29,3.91,6.78,6.78,0,0,1-1.27,2.45,7.63,7.63,0,0,1-3,2.19,10.53,10.53,0,0,1-4.36.9,12.5,12.5,0,0,1-7.84-2.8L421,319.9a17.5,17.5,0,0,0,10.94,3.69,18.29,18.29,0,0,0,7.35-1.43,12.28,12.28,0,0,0,4.94-3.54,10.29,10.29,0,0,0,2.08-4.12,32.21,32.21,0,0,0,.43-6.2V287.66h5v-4.84H441.28Zm-2.61,17.05a8.79,8.79,0,0,1-6.41,2.68,8.13,8.13,0,0,1-6.26-2.67,9.74,9.74,0,0,1-2.44-6.87,9.12,9.12,0,0,1,2.66-6.91,8.79,8.79,0,0,1,12.45,0,9,9,0,0,1,2.69,6.85A9.28,9.28,0,0,1,438.67,303.82Zm31.73-8.62a28.19,28.19,0,0,0-6.1-1.48,25.22,25.22,0,0,1-5.48-1.24,2.17,2.17,0,0,1-1.28-2.16,2.87,2.87,0,0,1,1.39-2.48,6.25,6.25,0,0,1,3.54-.93,7.18,7.18,0,0,1,6.41,3.41V292h4.84v-9.19h-4.84V284a13.49,13.49,0,0,0-6.75-1.61,10.29,10.29,0,0,0-7,2.33,7.43,7.43,0,0,0-2.66,5.81,7.14,7.14,0,0,0,2.44,5.6c1.64,1.44,4.36,2.48,8.18,3.13a17.32,17.32,0,0,1,5.17,1.37,2.48,2.48,0,0,1,1.3,2.32,2.82,2.82,0,0,1-1.57,2.54,8.27,8.27,0,0,1-4.21.92,7.57,7.57,0,0,1-4.37-1.26,4.51,4.51,0,0,1-2.1-3.21V301h-4.87v9.5h4.87V309a12.13,12.13,0,0,0,7.24,2,12.27,12.27,0,0,0,7.69-2.28,7.34,7.34,0,0,0,3-6.14,7.8,7.8,0,0,0-1.36-4.57A7.58,7.58,0,0,0,470.4,295.2Zm15-21.63-5.44,5v4.27H476.3v4.84h3.61V301.4a27.74,27.74,0,0,0,.4,5.73,4.75,4.75,0,0,0,1.95,2.76,6.81,6.81,0,0,0,4,1.1,12.49,12.49,0,0,0,4.18-.74v-5a7.89,7.89,0,0,1-3,.58c-1,0-1.56-.26-1.79-.76a12.71,12.71,0,0,1-.36-4V287.66h5.12v-4.84h-5.12Zm30.24,19.3a22.26,22.26,0,0,0-.39-4.93,7.15,7.15,0,0,0-1.5-2.87,7.91,7.91,0,0,0-3.4-2.18,15.52,15.52,0,0,0-5.39-.85q-8.51,0-12,6.48l5.21,1.37a6.28,6.28,0,0,1,5.93-3.26,7.24,7.24,0,0,1,3.85.91,4.2,4.2,0,0,1,1.87,2.06,10.33,10.33,0,0,1,.4,3.27v2.75a13.64,13.64,0,0,0-7.53-2.35,10.58,10.58,0,0,0-7.14,2.55,8.46,8.46,0,0,0-.17,12.71,9.61,9.61,0,0,0,6.57,2.46,12.39,12.39,0,0,0,8.82-3.84v3.38h9.5v-4.84h-4.66Zm-5.39,10.59a10.75,10.75,0,0,1-7.47,3.32,5,5,0,0,1-3.62-1.31,4.41,4.41,0,0,1-1.33-3.27,4.31,4.31,0,0,1,1.51-3.41,5.63,5.63,0,0,1,3.78-1.31,11.47,11.47,0,0,1,7.13,2.75ZM348.83,273.57l-5.44,5v4.27h-3.61v4.84h3.61V301.4a27.74,27.74,0,0,0,.4,5.73,4.69,4.69,0,0,0,1.94,2.76,6.85,6.85,0,0,0,4,1.1,12.54,12.54,0,0,0,4.18-.74v-5a7.94,7.94,0,0,1-3,.58c-1,0-1.55-.26-1.79-.76a12.83,12.83,0,0,1-.35-4V287.66H354v-4.84h-5.12Z" transform="translate(-317.34 -18.79)"/></g></svg>