<svg id="logo_-_blue_star" data-name="logo - blue star" xmlns="http://www.w3.org/2000/svg" viewBox="0 0 701 186.77"><defs><style>.cls-1{fill:#01050b;}.cls-1,.cls-2{fill-rule:evenodd;}.cls-2{fill:#0070ff;}</style></defs><g id="taggstar"><path class="cls-1" d="M774.72,142.29q-9.39,0-14.82,1.54a24.15,24.15,0,0,0-10.3,6.32,32.86,32.86,0,0,0-7.6,12V143.57H712.35V158H729v53.83H712.35v14.45h50.92V211.84h-18v-18.2q0-16.92,3-23.45a16.68,16.68,0,0,1,9.06-9q6.11-2.47,18.5-2.47H779V142.29ZM284.6,173.56q0-10.08-1.16-14.69a21.34,21.34,0,0,0-4.48-8.59q-3.34-4-10.13-6.5a46.34,46.34,0,0,0-16.11-2.52q-25.38,0-35.72,19.32l15.56,4.1q5.46-9.75,17.68-9.74,7.09,0,11.5,2.73c2.93,1.82,4.8,3.87,5.59,6.15a30.77,30.77,0,0,1,1.2,9.74v8.21a40.89,40.89,0,0,0-22.47-7,31.63,31.63,0,0,0-21.32,7.6,24.19,24.19,0,0,0-8.85,19.15,23.9,23.9,0,0,0,8.34,18.79,28.68,28.68,0,0,0,19.61,7.35q14.52,0,26.31-11.45v10.09h28.37V211.84H284.6Zm-16.07,31.62q-10.51,9.91-22.3,9.91-6.84,0-10.81-3.93a13.15,13.15,0,0,1-4-9.74A12.83,12.83,0,0,1,236,191.25a16.6,16.6,0,0,1,11.28-3.93q10.77,0,21.28,8.2Zm132.62-61.61h-31.1v11.79q-12.81-13.06-29.22-13.07-16.24,0-28.59,12.09T299.9,186.12q0,18,11.19,30.25t29,12.31A37.6,37.6,0,0,0,358,224.32q8.21-4.37,12.05-9.23v7.52q0,8.2-.85,11.67a20.25,20.25,0,0,1-3.81,7.3,22.73,22.73,0,0,1-8.93,6.54,31.29,31.29,0,0,1-13,2.69,37.38,37.38,0,0,1-23.42-8.37l-10.59,11.79a52.17,52.17,0,0,0,32.64,11,54.49,54.49,0,0,0,22-4.27q9.82-4.28,14.74-10.56a30.38,30.38,0,0,0,6.19-12.3q1.29-6,1.29-18.5V158h14.86Zm-38.87,62.68a26.25,26.25,0,0,1-19.15,8,24.24,24.24,0,0,1-18.67-8q-7.31-7.95-7.3-20.51,0-13,7.95-20.63a26.3,26.3,0,0,1,37.17.08q8,7.74,8,20.47Q370.31,198.26,362.28,206.25Zm108.44-50.89q-12.83-13.06-29.23-13.07-16.23,0-28.58,12.09t-12.35,31.74q0,18,11.2,30.25t29,12.31a37.61,37.61,0,0,0,17.95-4.36q8.2-4.37,12.05-9.23v7.52q0,8.2-.86,11.67a20.21,20.21,0,0,1-3.8,7.3,22.73,22.73,0,0,1-8.93,6.54,31.37,31.37,0,0,1-13,2.69,37.35,37.35,0,0,1-23.41-8.37l-10.6,11.79a52.18,52.18,0,0,0,32.65,11,54.55,54.55,0,0,0,22-4.27q9.83-4.28,14.74-10.56a30.5,30.5,0,0,0,6.19-12.3q1.29-6,1.28-18.5V158h14.87V143.57h-31.1Zm-7.78,50.89a26.21,26.21,0,0,1-19.14,8,24.22,24.22,0,0,1-18.67-8q-7.31-7.95-7.31-20.51,0-13,7.95-20.63a26.3,26.3,0,0,1,37.17.08q8,7.74,8,20.47Q471,198.26,462.94,206.25Zm94.69-25.74q-6.15-2.52-18.2-4.39-12.57-2-16.37-3.71t-3.8-6.45a8.51,8.51,0,0,1,4.14-7.39A18.61,18.61,0,0,1,534,155.79q12.56,0,19.14,10.17v5h14.44V143.57H553.1v3.54q-8.46-4.81-20.17-4.82-13,0-20.93,7a22.09,22.09,0,0,0-7.95,17.31,21.27,21.27,0,0,0,7.3,16.72q7.3,6.45,24.4,9.34,11.54,1.88,15.42,4.09a7.41,7.41,0,0,1,3.89,6.92q0,4.88-4.7,7.61T537.8,214a22.55,22.55,0,0,1-13-3.76c-3.67-2.51-5.77-5.69-6.28-9.57v-2.73H504v28.37h14.53v-4.65q8.37,6,21.62,6,14.1,0,22.94-6.79t8.85-18.34a23.37,23.37,0,0,0-4.06-13.63A22.8,22.8,0,0,0,557.63,180.51ZM602.24,116,586,130.84v12.73H575.24V158H586v41q0,12.14,1.2,17.09a14,14,0,0,0,5.81,8.24q4.62,3.3,12,3.29a37,37,0,0,0,12.47-2.22V210.65a24.08,24.08,0,0,1-8.88,1.71q-4.27,0-5.34-2.27t-1.07-11.92V158h15.29V143.57H602.24Zm90.24,57.59q0-10.08-1.15-14.69a21.37,21.37,0,0,0-4.49-8.59q-3.33-4-10.13-6.5a46.33,46.33,0,0,0-16.1-2.52q-25.38,0-35.72,19.32l15.55,4.1q5.47-9.75,17.69-9.74,7.1,0,11.49,2.73t5.6,6.15a30.81,30.81,0,0,1,1.19,9.74v8.21a40.87,40.87,0,0,0-22.47-7,31.65,31.65,0,0,0-21.32,7.6,24.21,24.21,0,0,0-8.84,19.15,23.9,23.9,0,0,0,8.33,18.79,28.68,28.68,0,0,0,19.61,7.35q14.52,0,26.32-11.45v10.09h28.37V211.84H692.48Zm-16.07,31.62q-10.5,9.91-22.3,9.91-6.84,0-10.81-3.93a13.15,13.15,0,0,1-4-9.74,12.84,12.84,0,0,1,4.53-10.17,16.6,16.6,0,0,1,11.28-3.93q10.77,0,21.27,8.2ZM194.8,116l-16.23,14.87v12.73H167.8V158h10.77v41q0,12.14,1.19,17.09a14,14,0,0,0,5.81,8.24q4.62,3.3,12.05,3.29a37,37,0,0,0,12.48-2.22V210.65a24.17,24.17,0,0,1-8.89,1.71q-4.28,0-5.34-2.27t-1.07-11.92V158h15.3V143.57H194.8Z" transform="translate(-78 -78.48)"/></g><g id="star"><path class="cls-2" d="M117,78.48a39,39,0,1,0,39,39A39,39,0,0,0,117,78.48Zm16.54,62.29L117.2,128.84l-16.49,11.92L107,121.69,90.59,109.57l20.21,0L117.12,91l6.24,18.72h20.16l-16.32,12Z" transform="translate(-78 -78.48)"/></g></svg>